<svg id="Layer_1" data-name="Layer 1" viewBox="0 0 512 512" version="1.1" xmlns="http://www.w3.org/2000/svg">
  <defs id="defs1">
    <linearGradient id="swatch1">
      <stop style="stop-color:#0d9aa8;stop-opacity:1" offset="0" id="stop1"/>
    </linearGradient>
    <style id="style1">
      .cls-1{stroke:#0d9aa8;stroke-miterlimit:10;stroke-width:4px}.cls-1,.cls-2{fill:#0d9aa8}
    </style>
  </defs>
  <path class="cls-1" d="M306.19 293.43c51.84-9.73 86.11-59.83 76.37-111.67-9.73-51.84-59.83-86.11-111.67-76.37m.71 16.74c42.65-8.01 83.87 20.18 91.88 62.83s-20.18 83.87-62.83 91.87" id="path1"/>
  <g id="g12" style="fill:#0d9aa8;fill-opacity:1">
    <g id="g7" style="fill:#0d9aa8;fill-opacity:1">
      <path class="cls-2" d="M217.86 210.62c-5.48 1.03-9.09 6.32-8.07 11.79 1.03 5.48 6.32 9.09 11.79 8.07 5.48-1.03 9.09-6.32 8.07-11.79-1.03-5.48-6.32-9.09-11.79-8.07" id="path2" style="fill:#0d9aa8;fill-opacity:1"/>
      <path class="cls-2" d="M265.19 242.06c-5.48 1.03-9.09 6.32-8.07 11.79 1.03 5.48 6.32 9.09 11.79 8.07 5.48-1.03 9.09-6.32 8.07-11.79-1.03-5.48-6.32-9.09-11.79-8.07" id="path3" style="fill:#0d9aa8;fill-opacity:1"/>
      <path class="cls-2" d="M231.26 292.25c-5.48 1.03-9.09 6.32-8.07 11.79 1.03 5.48 6.32 9.09 11.79 8.07 5.48-1.03 9.09-6.32 8.07-11.79-1.03-5.48-6.32-9.09-11.79-8.07" id="path4" style="fill:#0d9aa8;fill-opacity:1"/>
      <path class="cls-2" d="M183.48 258.87c-5.48 1.03-9.09 6.32-8.07 11.79 1.03 5.48 6.32 9.09 11.79 8.07 5.48-1.03 9.09-6.32 8.07-11.79-1.03-5.48-6.32-9.09-11.79-8.07" id="path5" style="fill:#0d9aa8;fill-opacity:1"/>
      <path class="cls-2" d="M74.21 361.82c-5.13-8.21-11.68-15.22-19.95-23.2-14.48-13.98-27.33-29.84-38.22-47.12-.11-.17-.22-.35-.33-.52-6.82 33-11.69 65.53-12.07 92.31 0 0-6.6 43.27 32.48 83.71 0 0 17.88 19.84 37.62 16.08 10.41-38.95 13.99-68.1 11.19-90-1.54-12.06-4.95-21.99-10.73-31.26Z" id="path6" style="fill:#0d9aa8;fill-opacity:1"/>
      <path class="cls-2" d="M134.92 134.55c-16.13 3.03-26.79 18.61-23.76 34.74s18.61 26.79 34.74 23.76 26.79-18.61 23.76-34.74-18.61-26.79-34.74-23.76" id="path7" style="fill:#0d9aa8;fill-opacity:1"/>
    </g>
    <path class="cls-2" d="M330.26 337.61q-495.39-506.415 0 0" id="path8" style="fill:#0d9aa8;fill-opacity:1"/>
    <g id="g11" style="fill:#0d9aa8;fill-opacity:1">
      <path class="cls-2" d="M179.11 30.52c-13.84-5.21-32.64-.28-54.97 11.42-18.98 9.95-46.86 24.51-52.18 51.82C94.63 81.09 137.01 61.08 200 45.81c-5-6.41-15.37-13.21-20.89-15.29" id="path9" style="fill:#0d9aa8;fill-opacity:1"/>
      <path class="cls-2" d="M331.17 337.53q-496.755-506.295 0 0" id="path10" style="fill:#0d9aa8;fill-opacity:1"/>
      <path class="cls-2" d="M277.53 56.74c-16.884 1.558-33.899 2.01-50.67 4.51-20.214 3.013-103.134 21.689-153.01 51.6-10.693 6.413-28.944 81.984-45.68 155.16 9.96 18.3 24.15 38.96 44.05 58.19 16.2 15.65 31.06 32.25 34.99 63.06 2.67 20.93.1 47.51-8.05 81.6 23.22-21.84 51.07-69.91 57.5-83.81 6.89-14.89 32.33-36.61 57.24-38.23 39.236-3.219 78.345-7.742 117.54-11.39M89.43 172.37c-5.28-28.11 13.3-55.27 41.41-60.55 28.12-5.28 55.28 13.3 60.56 41.41 5.28 28.12-13.3 55.28-41.41 60.56s-55.27-13.3-60.55-41.41zm100.91 119.47c-12.65 2.37-24.87-5.98-27.24-18.63s5.98-24.87 18.63-27.24 24.87 5.98 27.24 18.63-5.98 24.87-18.63 27.24m47.02 33.09c-12.65 2.37-24.87-5.98-27.24-18.63s5.98-24.87 18.63-27.24 24.87 5.98 27.24 18.63-5.98 24.87-18.63 27.24m-13.4-80.88c-12.65 2.37-24.87-5.98-27.24-18.63s5.98-24.87 18.63-27.24 24.87 5.98 27.24 18.63-5.98 24.87-18.63 27.24m47.43 31.68c-12.65 2.37-24.87-5.98-27.24-18.63s5.98-24.87 18.63-27.24 24.87 5.98 27.24 18.63-5.98 24.87-18.63 27.24" id="path11" style="fill:#0d9aa8;fill-opacity:1"/>
    </g>
  </g>
  <path class="cls-2" d="M296.02 165.78c-16.33 3.07-27.03 19.33-23.85 36.26s19.05 28.2 35.38 25.14c16.33-3.07 27.03-19.33 23.85-36.26s-19.05-28.2-35.38-25.14" id="path12"/>
  <path class="cls-1" d="M409.89 288.54c-1.92 0-3.86-.61-5.5-1.89-3.9-3.04-4.61-8.66-1.57-12.57 22.43-28.83 31.18-65.88 24.01-101.67-7.02-35.04-28.75-65.49-59.6-83.55-4.27-2.5-5.7-7.99-3.2-12.26s7.97-5.7 12.26-3.21c35.26 20.65 60.08 55.45 68.11 95.5 8.2 40.9-1.8 83.25-27.43 116.2a8.92 8.92 0 0 1-7.07 3.46Z" id="path13" style="fill:#0d9aa8;fill-opacity:1;stroke:#0d9aa8;stroke-opacity:1;stroke-linecap:butt"/>
  <path class="cls-1" d="M462.06 312.47c-1.92 0-3.86-.61-5.5-1.89-3.9-3.04-4.61-8.67-1.57-12.57 30.42-39.09 42.29-89.34 32.55-137.87-9.52-47.49-38.98-88.79-80.82-113.29-4.27-2.5-5.7-8-3.2-12.27 2.5-4.26 8-5.7 12.26-3.2 46.24 27.09 78.81 72.73 89.33 125.24 10.76 53.64-2.36 109.18-35.98 152.39a8.92 8.92 0 0 1-7.07 3.46z" id="path14"/>
</svg>
